<?xml version="1.0" encoding="UTF-8" standalone="no"?>
<!-- Created with Inkscape (http://www.inkscape.org/) -->

<svg
   xmlns:dc="http://purl.org/dc/elements/1.1/"
   xmlns:cc="http://creativecommons.org/ns#"
   xmlns:rdf="http://www.w3.org/1999/02/22-rdf-syntax-ns#"
   xmlns:svg="http://www.w3.org/2000/svg"
   xmlns="http://www.w3.org/2000/svg"
   xmlns:sodipodi="http://sodipodi.sourceforge.net/DTD/sodipodi-0.dtd"
   xmlns:inkscape="http://www.inkscape.org/namespaces/inkscape"
   width="128"
   height="128"
   id="svg2"
   sodipodi:version="0.32"
   inkscape:version="0.47pre4 r22446"
   version="1.0"
   sodipodi:docname="gnome-fs-desktop.svg"
   inkscape:output_extension="org.inkscape.output.svg.inkscape">
  <defs
     id="defs4">
    <inkscape:perspective
       sodipodi:type="inkscape:persp3d"
       inkscape:vp_x="0 : 64 : 1"
       inkscape:vp_y="0 : 1000 : 0"
       inkscape:vp_z="128 : 64 : 1"
       inkscape:persp3d-origin="64 : 42.666667 : 1"
       id="perspective15" />
    <inkscape:perspective
       id="perspective2850"
       inkscape:persp3d-origin="0.5 : 0.33333333 : 1"
       inkscape:vp_z="1 : 0.5 : 1"
       inkscape:vp_y="0 : 1000 : 0"
       inkscape:vp_x="0 : 0.5 : 1"
       sodipodi:type="inkscape:persp3d" />
  </defs>
  <sodipodi:namedview
     id="base"
     pagecolor="#ffffff"
     bordercolor="#000000"
     borderopacity="1"
     inkscape:pageopacity="0.0"
     inkscape:pageshadow="2"
     inkscape:zoom="2.8"
     inkscape:cx="134.08044"
     inkscape:cy="104.59804"
     inkscape:document-units="px"
     inkscape:current-layer="layer1"
     width="128px"
     height="128px"
     showgrid="true"
     inkscape:window-width="1678"
     inkscape:window-height="1003"
     inkscape:window-x="0"
     inkscape:window-y="47"
     inkscape:window-maximized="0" />
  <metadata
     id="metadata7">
    <rdf:RDF>
      <cc:Work
         rdf:about="">
        <dc:format>image/svg+xml</dc:format>
        <dc:type
           rdf:resource="http://purl.org/dc/dcmitype/StillImage" />
      </cc:Work>
    </rdf:RDF>
  </metadata>
  <g
     inkscape:label="Ebene 1"
     inkscape:groupmode="layer"
     id="layer1">
    <path
       style="font-size:medium;font-style:normal;font-variant:normal;font-weight:normal;font-stretch:normal;text-indent:0;text-align:start;text-decoration:none;line-height:normal;letter-spacing:normal;word-spacing:normal;text-transform:none;direction:ltr;block-progression:tb;writing-mode:lr-tb;text-anchor:start;color:#000000;fill:#ffffff;fill-opacity:1;fill-rule:nonzero;stroke:none;stroke-width:11;marker:none;visibility:visible;display:inline;overflow:visible;enable-background:accumulate;font-family:Andale Mono;-inkscape-font-specification:Andale Mono"
       d="m 22.78125,8.40625 -0.0625,5.4375 C 22.69365,16.145174 22.6794,18.289025 22.6875,20.5 l -0.03125,0 0,1.96875 -0.125,0 0,0.3125 -8.625,0 -5.5000007,0 0,5.5 0,14.25 0,14.3125 0,5.5 5.5000007,0 8.46875,0 0,3.3125 -8.46875,0 -5.5000007,0 0,5.5 0,21.46875 0,21.46875 0,5.5 5.5000007,0 7.15625,0 7.15625,0 5.5,0 0,-5.5 0,-14.312504 0,-8.812496 8.8125,0 8.8125,0 0,8.812496 0,14.312504 0,5.5 5.5,0 7.15625,0 7.15625,0 5.5,0 0,-5.5 0,-14.312504 0,-8.812496 8.8125,0 8.8125,0 0,8.812496 0,14.312504 0,5.5 5.5,0 7.15625,0 7.15625,0 5.5,0 0,-5.5 0,-21.46875 0,-21.46875 0,-5.5 -5.5,0 -7.15625,0 c -0.92152,0 -1.36869,-0.01256 -1.96875,-0.03125 l 0,-3.4375 9.125,0 5.5,0 0,-5.5 0,-14.15625 0,-13.25 0,-5.5 -5.5,0 -9.0625,0 0,-2.28125 -0.0625,0 0,-7.59375 0,-5.5 -5.5,0 -35.46875,0 -35.78125,0 -5.4375,0 z"
       id="path2836" />
    <path
       style="fill:#000000"
       d="m 28.21875,13.906249 c -0.04396,4.026333 0.05872,8.067889 -0.03125,12.09375 l -0.03125,0 0,0.8125 c -0.01128,0.386793 -0.01572,0.769651 -0.03125,1.15625 l -0.09375,0 0,0.3125 -14.125,0 0,14.25 0,14.3125 13.96875,0 0,14.3125 -13.96875,0 0,21.46875 0,21.468751 7.15625,0 7.15625,0 0,-14.312503 0,-14.312498 14.3125,0 14.3125,0 0,14.312498 0,14.312503 7.15625,0 7.15625,0 0,-14.312503 0,-14.312498 14.3125,0 14.3125,0 0,14.312498 0,14.312503 7.15625,0 7.15625,0 0,-21.468751 0,-21.46875 -7.15625,0 c -1.56553,0 -2.73201,-0.01887 -3.6875,-0.09375 l -3.78125,0 0,-14.375 14.625,0 0,-14.15625 0,-13.25 -14.625,0 0,0.90625 c 0.01838,0.06304 0.01497,0.151654 0.03125,0.21875 l -0.03125,0 0,13.53125 -14.625,0 0,-14.65625 14.625,0 0,-3.78125 0,-11.59375 -35.46875,0 -35.78125,0 z m 0.1875,14.5 14.625,0 0,14.625 -14.625,0 0,-14.625 z m 14.125,28.4375 21.46875,0 21.46875,0 0,7.15625 0,7.15625 -21.46875,0 -21.46875,0 0,-7.15625 0,-7.15625 z"
       id="path3464" />
  </g>
</svg>
