<?xml version="1.0" encoding="UTF-8" standalone="no"?>
<!-- Created with Inkscape (http://www.inkscape.org/) -->

<svg
   xmlns:dc="http://purl.org/dc/elements/1.1/"
   xmlns:cc="http://creativecommons.org/ns#"
   xmlns:rdf="http://www.w3.org/1999/02/22-rdf-syntax-ns#"
   xmlns:svg="http://www.w3.org/2000/svg"
   xmlns="http://www.w3.org/2000/svg"
   xmlns:sodipodi="http://sodipodi.sourceforge.net/DTD/sodipodi-0.dtd"
   xmlns:inkscape="http://www.inkscape.org/namespaces/inkscape"
   width="128"
   height="128"
   id="svg2"
   sodipodi:version="0.32"
   inkscape:version="0.47pre4 r22446"
   version="1.0"
   sodipodi:docname="user-trash.svg"
   inkscape:output_extension="org.inkscape.output.svg.inkscape">
  <defs
     id="defs4">
    <inkscape:perspective
       sodipodi:type="inkscape:persp3d"
       inkscape:vp_x="0 : 64 : 1"
       inkscape:vp_y="0 : 1000 : 0"
       inkscape:vp_z="128 : 64 : 1"
       inkscape:persp3d-origin="64 : 42.666667 : 1"
       id="perspective10" />
    <inkscape:perspective
       id="perspective3643"
       inkscape:persp3d-origin="0.5 : 0.33333333 : 1"
       inkscape:vp_z="1 : 0.5 : 1"
       inkscape:vp_y="0 : 1000 : 0"
       inkscape:vp_x="0 : 0.5 : 1"
       sodipodi:type="inkscape:persp3d" />
  </defs>
  <sodipodi:namedview
     id="base"
     pagecolor="#ffffff"
     bordercolor="#000000"
     borderopacity="1"
     inkscape:pageopacity="0.0"
     inkscape:pageshadow="2"
     inkscape:zoom="3.959798"
     inkscape:cx="114.52841"
     inkscape:cy="58.552067"
     inkscape:document-units="px"
     inkscape:current-layer="layer1"
     width="128px"
     height="128px"
     showgrid="true"
     inkscape:window-width="1678"
     inkscape:window-height="1003"
     inkscape:window-x="0"
     inkscape:window-y="47"
     inkscape:window-maximized="0" />
  <metadata
     id="metadata7">
    <rdf:RDF>
      <cc:Work
         rdf:about="">
        <dc:format>image/svg+xml</dc:format>
        <dc:type
           rdf:resource="http://purl.org/dc/dcmitype/StillImage" />
      </cc:Work>
    </rdf:RDF>
  </metadata>
  <g
     inkscape:label="Ebene 1"
     inkscape:groupmode="layer"
     id="layer1">
    <path
       style="font-size:medium;font-style:normal;font-variant:normal;font-weight:normal;font-stretch:normal;text-indent:0;text-align:start;text-decoration:none;line-height:normal;letter-spacing:normal;word-spacing:normal;text-transform:none;direction:ltr;block-progression:tb;writing-mode:lr-tb;text-anchor:start;color:#000000;fill:#ffffff;fill-opacity:1;fill-rule:nonzero;stroke:none;stroke-width:11;marker:none;visibility:visible;display:inline;overflow:visible;enable-background:accumulate;font-family:Andale Mono;-inkscape-font-specification:Andale Mono"
       d="m 37.703125,10.01562 0,5.5 0,8.3125 -2.6875,0 0,-8.15625 0,-5.5 -5.5,0 -14.0625,0 -5.5,0 0,5.5 0,26.6875 0,5.5 0.125,0 0,1 5.5,0 22.125,0 0,8.34375 0,13.59375 0,8.34375 -22.125,0 -5.5,0 0,1.125 -0.125,0 0,5.5 0,26.71876 0,5.5 5.5,0 14.0625,0 5.5,0 0,-5.5 0,-8.3125 58,0 0,8.3125 0,5.5 5.5,0 14.031265,0 5.5,0 0,-5.5 0,-26.71876 0,-5.5 -0.0312,0 0,-1.125 -5.5,0 -22.093765,0 0,-22.15625 0,-8.125 22.125015,0 5.5,0 0,-5.5 0,-14.03125 0,-5.5 -0.0937,0 0,-8.15625 0,-5.5 -5.5,0 -14.031265,0 -5.5,0 0,5.5 0,8.15625 -2.5,0 0,-8.3125 0,-5.5 -5.5,0 -41.71875,0 -5.5,0 z"
       id="path2834" />
    <path
       style="fill:#000000;fill-opacity:1;stroke:none"
       d="m 43.208527,15.504639 0,13.824946 -13.716939,0 0,-13.662935 -14.04096,0 0,26.677816 0.108007,0 0,1.02607 27.649892,0 0,13.825032 0,13.608931 0,13.824946 -27.649892,0 0,1.133991 -0.108007,0 0,26.731924 14.04096,0 0,-13.824955 69.016721,0 0,13.824955 14.040951,0 0,-26.731924 -0.0539,0 0,-1.133991 -27.595875,0 0,-27.649891 0,-13.609018 27.649875,0 0,-14.040951 -0.108,0 0,-13.662935 -14.040952,0 0,13.662935 -13.500923,0 0,-13.824946 -41.690852,0 z m 14.04096,14.04096 13.608931,0 0,13.608923 -13.608931,0 0,-13.608923 z m 0,27.649969 13.608931,0 0,13.608931 -13.608931,0 0,-13.608931 z"
       id="rect3222" />
  </g>
</svg>
