<?xml version="1.0" encoding="UTF-8" standalone="no"?>
<!-- Created with Inkscape (http://www.inkscape.org/) -->

<svg
   xmlns:dc="http://purl.org/dc/elements/1.1/"
   xmlns:cc="http://creativecommons.org/ns#"
   xmlns:rdf="http://www.w3.org/1999/02/22-rdf-syntax-ns#"
   xmlns:svg="http://www.w3.org/2000/svg"
   xmlns="http://www.w3.org/2000/svg"
   xmlns:sodipodi="http://sodipodi.sourceforge.net/DTD/sodipodi-0.dtd"
   xmlns:inkscape="http://www.inkscape.org/namespaces/inkscape"
   width="128"
   height="128"
   id="svg2"
   sodipodi:version="0.32"
   inkscape:version="0.47pre4 r22446"
   version="1.0"
   sodipodi:docname="x-directory-normal-home.svg"
   inkscape:output_extension="org.inkscape.output.svg.inkscape">
  <defs
     id="defs4">
    <inkscape:perspective
       sodipodi:type="inkscape:persp3d"
       inkscape:vp_x="0 : 64 : 1"
       inkscape:vp_y="0 : 1000 : 0"
       inkscape:vp_z="128 : 64 : 1"
       inkscape:persp3d-origin="64 : 42.666667 : 1"
       id="perspective11" />
    <inkscape:perspective
       id="perspective2826"
       inkscape:persp3d-origin="0.5 : 0.33333333 : 1"
       inkscape:vp_z="1 : 0.5 : 1"
       inkscape:vp_y="0 : 1000 : 0"
       inkscape:vp_x="0 : 0.5 : 1"
       sodipodi:type="inkscape:persp3d" />
  </defs>
  <sodipodi:namedview
     id="base"
     pagecolor="#ffffff"
     bordercolor="#000000"
     borderopacity="1"
     inkscape:pageopacity="0.0"
     inkscape:pageshadow="2"
     inkscape:zoom="3.959798"
     inkscape:cx="114.52841"
     inkscape:cy="58.552067"
     inkscape:document-units="px"
     inkscape:current-layer="layer1"
     width="128px"
     height="128px"
     showgrid="true"
     inkscape:window-width="1678"
     inkscape:window-height="1003"
     inkscape:window-x="0"
     inkscape:window-y="47"
     inkscape:window-maximized="0" />
  <metadata
     id="metadata7">
    <rdf:RDF>
      <cc:Work
         rdf:about="">
        <dc:format>image/svg+xml</dc:format>
        <dc:type
           rdf:resource="http://purl.org/dc/dcmitype/StillImage" />
      </cc:Work>
    </rdf:RDF>
  </metadata>
  <g
     inkscape:label="Ebene 1"
     inkscape:groupmode="layer"
     id="layer1">
    <path
       style="font-size:medium;font-style:normal;font-variant:normal;font-weight:normal;font-stretch:normal;text-indent:0;text-align:start;text-decoration:none;line-height:normal;letter-spacing:normal;word-spacing:normal;text-transform:none;direction:ltr;block-progression:tb;writing-mode:lr-tb;text-anchor:start;color:#000000;fill:#ffffff;fill-opacity:1;fill-rule:nonzero;stroke:none;stroke-width:11;marker:none;visibility:visible;display:inline;overflow:visible;enable-background:accumulate;font-family:Andale Mono;-inkscape-font-specification:Andale Mono"
       d="m 22.765625,8.28125 0,5.5 0,8.28125 -8.65625,0.0625 -5.40625,0.03125 -0.0625,5.40625 -0.125,14.46875 -0.15625,0 0,5.5 0,37.125 0,5.5 0.09375,0 0,0.78125 5.5,0 8.9375,0 0,8.6875 0,5.5 5.5,0 8.84375,0 0,9.09375 0,5.5 5.5,0 14.46875,0 5.5,0 0,-5.5 0,-9.09375 3.1875,0 0,8.875 0,5.5 5.5,0 14.46875,0 5.5,0 0,-5.5 0,-28.65625 0,-8.6875 8.34375,0 14.437515,0 5.5,0 0,-5.5 0,-14.46875 0,-14.03125 0,-5.5 -5.5,0 -14.437515,0 -5.5,0 0,5.5 0,8.53125 -2.84375,0 0,-8.75 0,-28.65625 0,-5.5 -5.5,0 -0.0625,0 -14.40625,0 -43.125,0 -5.5,0 z"
       id="path3776" />
    <path
       style="fill:#000000;fill-opacity:1;stroke:none"
       d="m 28.220485,13.780322 0,14.356458 -14.133012,0 0,14.244736 -0.167496,0 0,14.468183 43.236963,0 0,14.133013 -43.236963,0 0,14.468183 14.412321,0 0,14.188878 14.356459,0 0,14.579907 14.468183,0 0,-14.579907 14.188875,0 0,14.356457 14.46818,0 0,-28.657058 0,-14.188874 13.853708,0 14.412327,0 0,-14.468184 0,-14.02129 -14.412327,0 0,14.02129 -13.853708,0 0,-14.244736 0,-28.657056 -0.05574,0 -14.412322,0 -43.12524,0 z m 0.33517,14.468182 14.133012,0 0,14.133012 -14.133012,0 0,-14.133012 z m 28.601195,0 14.188876,0 0,14.133012 -14.188876,0 0,-14.133012 z"
       id="rect3719" />
  </g>
</svg>
