#define close_width 13
#define close_height 7
static unsigned char close_bits[] = {
   0xe2, 0x08, 0xa4, 0x04, 0xb8, 0x03, 0xf8, 0x03, 0xfe, 0x0f, 0xfa, 0x0b,
   0x03, 0x18 };
