#define desk_toggled_width 9
#define desk_toggled_height 9
static unsigned char desk_toggled_bits[] = {
   0x01, 0x01, 0xfe, 0x00, 0x82, 0x00, 0xba, 0x00, 0xaa, 0x00, 0xba, 0x00,
   0x82, 0x00, 0xfe, 0x00, 0x01, 0x01 };
