#define desk_width 9
#define desk_height 9
static unsigned char desk_bits[] = {
   0x38, 0x00, 0x10, 0x00, 0xd6, 0x00, 0x7c, 0x00, 0x28, 0x00, 0x38, 0x00,
   0x7c, 0x00, 0x44, 0x00, 0xc6, 0x00 };
