<?xml version="1.0" encoding="UTF-8" standalone="no"?>
<!-- Created with Inkscape (http://www.inkscape.org/) -->

<svg
   xmlns:dc="http://purl.org/dc/elements/1.1/"
   xmlns:cc="http://creativecommons.org/ns#"
   xmlns:rdf="http://www.w3.org/1999/02/22-rdf-syntax-ns#"
   xmlns:svg="http://www.w3.org/2000/svg"
   xmlns="http://www.w3.org/2000/svg"
   xmlns:sodipodi="http://sodipodi.sourceforge.net/DTD/sodipodi-0.dtd"
   xmlns:inkscape="http://www.inkscape.org/namespaces/inkscape"
   width="128"
   height="128"
   id="svg2"
   sodipodi:version="0.32"
   inkscape:version="0.47pre4 r22446"
   version="1.0"
   sodipodi:docname="computer.svg"
   inkscape:output_extension="org.inkscape.output.svg.inkscape">
  <defs
     id="defs4">
    <inkscape:perspective
       sodipodi:type="inkscape:persp3d"
       inkscape:vp_x="0 : 64 : 1"
       inkscape:vp_y="0 : 1000 : 0"
       inkscape:vp_z="128 : 64 : 1"
       inkscape:persp3d-origin="64 : 42.666667 : 1"
       id="perspective14" />
    <inkscape:perspective
       id="perspective3297"
       inkscape:persp3d-origin="0.5 : 0.33333333 : 1"
       inkscape:vp_z="1 : 0.5 : 1"
       inkscape:vp_y="0 : 1000 : 0"
       inkscape:vp_x="0 : 0.5 : 1"
       sodipodi:type="inkscape:persp3d" />
  </defs>
  <sodipodi:namedview
     id="base"
     pagecolor="#ffffff"
     bordercolor="#000000"
     borderopacity="1"
     inkscape:pageopacity="0.0"
     inkscape:pageshadow="2"
     inkscape:zoom="3.959798"
     inkscape:cx="52.824901"
     inkscape:cy="39.444223"
     inkscape:document-units="px"
     inkscape:current-layer="layer1"
     width="128px"
     height="128px"
     showgrid="true"
     inkscape:window-width="1678"
     inkscape:window-height="1003"
     inkscape:window-x="0"
     inkscape:window-y="47"
     inkscape:window-maximized="0" />
  <metadata
     id="metadata7">
    <rdf:RDF>
      <cc:Work
         rdf:about="">
        <dc:format>image/svg+xml</dc:format>
        <dc:type
           rdf:resource="http://purl.org/dc/dcmitype/StillImage" />
      </cc:Work>
    </rdf:RDF>
  </metadata>
  <g
     inkscape:label="Ebene 1"
     inkscape:groupmode="layer"
     id="layer1">
    <path
       style="font-size:medium;font-style:normal;font-variant:normal;font-weight:normal;font-stretch:normal;text-indent:0;text-align:start;text-decoration:none;line-height:normal;letter-spacing:normal;word-spacing:normal;text-transform:none;direction:ltr;block-progression:tb;writing-mode:lr-tb;text-anchor:start;color:#000000;fill:#ffffff;fill-opacity:1;fill-rule:nonzero;stroke:none;stroke-width:11;marker:none;visibility:visible;display:inline;overflow:visible;enable-background:accumulate;font-family:Andale Mono;-inkscape-font-specification:Andale Mono"
       d="m 7.28125,7.328125 0,5.5 0,14.53125 0,5.5 5.5,0 9.125,0 0,32.9375 -9.03125,0 -5.5,0 0,5.5 0,43.875005 0,5.5 5.5,0 14.53125,0 5.5,0 0,-5.5 0,-38.437505 9.03125,0 5.5,0 0,-0.0625 3.75,0 0,9.15625 0,5.5 5.5,0 9.15625,0 0,23.843755 0,5.5 5.5,0 14.5625,0 5.5,0 0,-5.5 0,-9.15625 8.9375,0 5.5,0 0,-5.5 0,-9.187505 9.3125,0 5.5,0 0,-5.5 0,-14.53125 0,-5.5 -5.5,0 -23.625,0 0,-9.21875 0,-5.5 -5.5,0 -9.125,0 0,-12.6875 0,-5.53125 38.3125,0 5.5,0 0,-5.5 0,-14.53125 0,-5.5 -5.5,0 -43.875,0 -5.5,0 0,5.5 0,8.9375 -33.03125,0 0,-8.9375 0,-5.5 -5.5,0 -14.53125,0 -5.5,0 z"
       id="path2829" />
    <path
       style="fill:#000000;fill-opacity:1;stroke:none"
       d="m 12.782115,12.83945 0,14.527462 14.527463,0 0,-14.527462 -14.527463,0 z m 58.567407,0 0,14.413072 -43.811166,0 0,0.113475 -0.11439,0 0,43.868452 14.527463,0 0,-0.05674 14.641851,0 0,-14.527462 -14.641851,0 0,-14.870631 14.870631,0 0,14.756241 14.584657,0 0,-18.130822 0,-11.038491 43.811173,0 0,-14.527463 -43.868368,0 z m 0.114389,43.754062 0,14.584565 14.584653,0 0,-14.584564 -14.584653,0 z m -58.567406,14.698955 0,43.868453 14.527461,0 0,-43.868452 -14.527461,0 z m 43.811165,0 0,14.527462 14.527462,0 0,-14.527462 -14.527462,0 z m 29.340894,0 0,0.113474 -0.228774,0 0,14.641852 -14.470268,0 0,29.112217 14.584659,0 0,-14.64186 14.413069,0 0,-14.699135 14.81343,0 0,-14.527462 -29.112116,0 z"
       id="rect3260" />
  </g>
</svg>
